<svg width="174" height="51" xmlns="http://www.w3.org/2000/svg" xmlns:xlink="http://www.w3.org/1999/xlink"><defs><path d="M11.925.16h-1.07c-1.956.002-3.91.007-5.866.015C2.103.185.004 2.358.005 5.298l.015 20.08c.003 3.106 1.99 5.159 5.032 5.175 2.278.013 4.558-.005 6.837-.007h1.965c1.767 0 3.535.001 5.303-.013.256-.003.639-.079.742-.255.424-.727-.016-1.433-.837-1.433-4.678.002-9.357.01-14.034.006-1.562-.002-2.827-.929-3.175-2.362-.127-.516-.15-1.067-.152-1.603-.014-5.124-.014-10.249-.018-15.373-.001-1.324.01-2.648-.005-3.972-.03-2.477 1.752-3.643 3.54-3.61 3.163.058 6.326.044 9.49.03 1.442-.005 2.884-.011 4.328-.012 1.46.001 2.634.912 2.998 2.366.122.489.08 1.018.145 1.524.09.714-.126.976-.892.96-2.541-.052-5.085-.026-7.628-.01-2.92.02-5.003 2.12-5.021 5.078-.02 3.04-.016 6.08.006 9.12.022 2.865 2.092 4.948 4.885 4.95 1.38.003 2.76.002 4.14 0 1.978-.003 3.957-.006 5.936.001 1.871.007 3.29 1.356 3.318 3.236.044 3.064.042 6.13.009 9.194-.02 1.801-1.373 3.233-3.067 3.257-1.634.024-3.27.023-4.904.021-1.1 0-2.2-.001-3.3.005-.471.003-.635-.19-.626-.655a91.41 91.41 0 0 0-.002-2.721c-.031-2.462-1.933-4.6-4.346-4.73a46.688 46.688 0 0 0-5.536.02c-.77.049-1.594.394-2.256.823-1.722 1.12-2.453 3.349-1.893 5.364.58 2.096 2.28 3.52 4.406 3.576 1.438.038 2.878.031 4.317.023.6-.002 1.2-.006 1.8-.005 1.813 0 1.813-.001 1.874 1.852.09 2.705 2.068 4.719 4.7 4.727 1.783.005 3.567-.001 5.35-.008 3.015-.01 6.03-.021 9.043.022 2.323.033 4.746-2.121 4.719-4.9-.033-3.407-.013-6.816-.015-10.224-.003-3.36-.004-6.718-.008-10.077-.004-2.989-2.097-5.16-5.011-5.166-1.843-.002-3.686 0-5.53.003-3.002.004-6.004.008-9.007-.012-.749-.005-.792.326-.8.922-.01.627.1.907.82.901 3.907-.03 7.814-.03 11.721-.028h2.889c1.71 0 2.995 1.041 3.162 2.76.146 1.505.109 3.032.113 4.55.014 5.296.018 10.592.013 15.888-.002 2.174-1.28 3.68-3.165 3.69-4.726.023-9.451.024-14.177.014-1.486-.004-2.684-.97-3.033-2.436-.117-.491-.078-1.019-.147-1.525-.101-.75.208-.977.926-.968 2.446.034 4.893.018 7.34.006.526-.003 1.066.005 1.573-.116 2.193-.518 3.683-2.403 3.701-4.714.026-3.162.005-6.326-.004-9.488 0-.316-.022-.64-.093-.946-.549-2.333-2.367-3.807-4.736-3.815a954.027 954.027 0 0 0-4.922 0c-1.67.003-3.34.007-5.009 0-2.029-.006-3.468-1.262-3.507-3.197a245.885 245.885 0 0 1-.008-9.341c.029-1.735 1.364-3.12 2.935-3.138 1.527-.017 3.055-.016 4.584-.015 1.254.001 2.509.001 3.764-.008.492-.004.612.204.602.657a70.52 70.52 0 0 0 .001 2.721c.047 2.545 2.104 4.684 4.588 4.73 1.702.034 3.406.02 5.11-.006 1.346-.022 2.463-.622 3.318-1.656 1.336-1.615 1.56-3.453.72-5.355-.855-1.94-2.472-2.812-4.492-2.868-1.966-.054-3.935-.01-5.901-.008-1.63.001-1.63.002-1.694-1.692C23.724 2.215 21.676.168 18.88.164A3285.517 3285.517 0 0 0 11.925.16m14.95 14.82c-1.594-.067-2.78-1.243-2.943-2.872-.097-.97-.055-1.954-.086-2.932-.015-.478.2-.628.656-.619 1.245.024 2.492.006 3.737.005 1.08 0 2.157-.004 3.235-.002 1.753.005 3.135 1.283 3.226 2.977.097 1.773-1.177 3.337-2.938 3.433-.79.045-1.579.064-2.37.065h-.041c-.826 0-1.652-.021-2.476-.055M5.81 41.65c-1.875-.017-3.301-1.429-3.29-3.247.013-1.804 1.409-3.177 3.258-3.19 1.07-.009 2.141-.008 3.212-.008h.887c2.128 0 3.41 1.237 3.5 3.408.032.757-.01 1.518.015 2.277.018.559-.179.786-.752.769-1.197-.034-2.397-.008-3.594-.008v-.003c-.684 0-1.368.004-2.053.005h-.099c-.36 0-.722-.002-1.084-.004" id="a"/><linearGradient x1="-1.067%" y1="50.072%" x2="100.875%" y2="50.01%" id="b"><stop stop-color="#FF0B7F" offset="0%"/><stop stop-color="#933399" offset="100%"/></linearGradient></defs><g fill="none" fill-rule="evenodd"><g transform="translate(0 .727)"><mask id="c" fill="#fff"><use xlink:href="#a"/></mask><path d="M11.925.16h-1.07c-1.956.002-3.91.007-5.866.015C2.103.185.004 2.358.005 5.298l.015 20.08c.003 3.106 1.99 5.159 5.032 5.175 2.278.013 4.558-.005 6.837-.007h1.965c1.767 0 3.535.001 5.303-.013.256-.003.639-.079.742-.255.424-.727-.016-1.433-.837-1.433-4.678.002-9.357.01-14.034.006-1.562-.002-2.827-.929-3.175-2.362-.127-.516-.15-1.067-.152-1.603-.014-5.124-.014-10.249-.018-15.373-.001-1.324.01-2.648-.005-3.972-.03-2.477 1.752-3.643 3.54-3.61 3.163.058 6.326.044 9.49.03 1.442-.005 2.884-.011 4.328-.012 1.46.001 2.634.912 2.998 2.366.122.489.08 1.018.145 1.524.09.714-.126.976-.892.96-2.541-.052-5.085-.026-7.628-.01-2.92.02-5.003 2.12-5.021 5.078-.02 3.04-.016 6.08.006 9.12.022 2.865 2.092 4.948 4.885 4.95 1.38.003 2.76.002 4.14 0 1.978-.003 3.957-.006 5.936.001 1.871.007 3.29 1.356 3.318 3.236.044 3.064.042 6.13.009 9.194-.02 1.801-1.373 3.233-3.067 3.257-1.634.024-3.27.023-4.904.021-1.1 0-2.2-.001-3.3.005-.471.003-.635-.19-.626-.655a91.41 91.41 0 0 0-.002-2.721c-.031-2.462-1.933-4.6-4.346-4.73a46.688 46.688 0 0 0-5.536.02c-.77.049-1.594.394-2.256.823-1.722 1.12-2.453 3.349-1.893 5.364.58 2.096 2.28 3.52 4.406 3.576 1.438.038 2.878.031 4.317.023.6-.002 1.2-.006 1.8-.005 1.813 0 1.813-.001 1.874 1.852.09 2.705 2.068 4.719 4.7 4.727 1.783.005 3.567-.001 5.35-.008 3.015-.01 6.03-.021 9.043.022 2.323.033 4.746-2.121 4.719-4.9-.033-3.407-.013-6.816-.015-10.224-.003-3.36-.004-6.718-.008-10.077-.004-2.989-2.097-5.16-5.011-5.166-1.843-.002-3.686 0-5.53.003-3.002.004-6.004.008-9.007-.012-.749-.005-.792.326-.8.922-.01.627.1.907.82.901 3.907-.03 7.814-.03 11.721-.028h2.889c1.71 0 2.995 1.041 3.162 2.76.146 1.505.109 3.032.113 4.55.014 5.296.018 10.592.013 15.888-.002 2.174-1.28 3.68-3.165 3.69-4.726.023-9.451.024-14.177.014-1.486-.004-2.684-.97-3.033-2.436-.117-.491-.078-1.019-.147-1.525-.101-.75.208-.977.926-.968 2.446.034 4.893.018 7.34.006.526-.003 1.066.005 1.573-.116 2.193-.518 3.683-2.403 3.701-4.714.026-3.162.005-6.326-.004-9.488 0-.316-.022-.64-.093-.946-.549-2.333-2.367-3.807-4.736-3.815a954.027 954.027 0 0 0-4.922 0c-1.67.003-3.34.007-5.009 0-2.029-.006-3.468-1.262-3.507-3.197a245.885 245.885 0 0 1-.008-9.341c.029-1.735 1.364-3.12 2.935-3.138 1.527-.017 3.055-.016 4.584-.015 1.254.001 2.509.001 3.764-.008.492-.004.612.204.602.657a70.52 70.52 0 0 0 .001 2.721c.047 2.545 2.104 4.684 4.588 4.73 1.702.034 3.406.02 5.11-.006 1.346-.022 2.463-.622 3.318-1.656 1.336-1.615 1.56-3.453.72-5.355-.855-1.94-2.472-2.812-4.492-2.868-1.966-.054-3.935-.01-5.901-.008-1.63.001-1.63.002-1.694-1.692C23.724 2.215 21.676.168 18.88.164A3285.517 3285.517 0 0 0 11.925.16m14.95 14.82c-1.594-.067-2.78-1.243-2.943-2.872-.097-.97-.055-1.954-.086-2.932-.015-.478.2-.628.656-.619 1.245.024 2.492.006 3.737.005 1.08 0 2.157-.004 3.235-.002 1.753.005 3.135 1.283 3.226 2.977.097 1.773-1.177 3.337-2.938 3.433-.79.045-1.579.064-2.37.065h-.041c-.826 0-1.652-.021-2.476-.055M5.81 41.65c-1.875-.017-3.301-1.429-3.29-3.247.013-1.804 1.409-3.177 3.258-3.19 1.07-.009 2.141-.008 3.212-.008h.887c2.128 0 3.41 1.237 3.5 3.408.032.757-.01 1.518.015 2.277.018.559-.179.786-.752.769-1.197-.034-2.397-.008-3.594-.008v-.003c-.684 0-1.368.004-2.053.005h-.099c-.36 0-.722-.002-1.084-.004" fill="url(#b)" mask="url(#c)"/></g><path d="M62.21 29.142c-.136 2.325-2.2 3.677-4.048 3.955a7.74 7.74 0 0 1-.953.06c-1.906 0-3.793-.816-4.961-2.226a1.21 1.21 0 0 1 .136-1.67 1.127 1.127 0 0 1 1.615.14c.856 1.013 2.393 1.57 3.833 1.35.954-.139 2.004-.734 2.062-1.748.058-.895-.622-1.729-1.576-1.948-.389-.1-.836-.12-1.284-.139-1.012-.06-2.14-.12-3.19-.855-1.422-.994-2.12-2.801-1.694-4.392.468-1.729 2.023-3.06 3.872-3.34 1.79-.258 3.697.259 5.078 1.353a1.23 1.23 0 0 1 .195 1.669 1.17 1.17 0 0 1-1.634.198c-.875-.715-2.14-1.053-3.327-.874-.915.14-1.732.796-1.946 1.63-.194.696.233 1.43.778 1.809.506.358 1.188.397 1.985.437.545.039 1.09.06 1.673.198 2.043.457 3.503 2.366 3.386 4.393m15.75 4.015c-4.066 0-7.374-3.399-7.374-7.554 0-4.153 3.308-7.532 7.374-7.532 1.83 0 3.58.676 4.943 1.929.486.437.526 1.192.078 1.688a1.148 1.148 0 0 1-1.635.08 5.004 5.004 0 0 0-3.386-1.311c-2.782 0-5.038 2.304-5.038 5.146 0 2.844 2.256 5.148 5.038 5.148 1.286 0 2.51-.476 3.444-1.371.468-.457 1.207-.418 1.654.06A1.232 1.232 0 0 1 83 31.13c-1.381 1.29-3.171 2.027-5.04 2.027m15.44-.021c-.641 0-1.166-.536-1.166-1.212v-12.66c0-.676.525-1.212 1.167-1.212.661 0 1.186.536 1.186 1.212v12.66c0 .676-.525 1.212-1.186 1.212m12.459-6.28v2.53c0 .776.616 1.405 1.376 1.405h4.188c.642 0 1.169.537 1.169 1.193s-.527 1.173-1.169 1.173h-4.646c-1.786 0-3.234-1.48-3.234-3.304v-8.458c0-1.828 1.464-3.324 3.254-3.324h4.626c.642 0 1.169.537 1.169 1.193 0 .655-.527 1.193-1.169 1.193h-4.188c-.76 0-1.376.63-1.376 1.405v2.629h2.636c.642 0 1.168.517 1.168 1.193 0 .655-.526 1.172-1.168 1.172h-2.636zm26.452 5.107c0 .02-.02.02-.02.02v.18c-.019.02-.019.04-.019.059 0 .02 0 .04-.02.06v.06c-.018.02-.018.039-.018.039l-.04.06c0 .02 0 .04-.02.06 0 .02-.019.04-.019.06l-.039.06s-.02.019-.02.039c-.018.019-.038.019-.038.04-.02.02-.02.039-.039.039 0 .02-.02.04-.038.06-.02 0-.02.02-.04.04-.019 0-.019.02-.039.039-.019 0-.039.02-.039.04h-.02c0 .02-.018.02-.018.02-.039.04-.097.06-.156.099-.059.02-.097.06-.156.08h-.02c-.057.019-.116.04-.175.04h-.038c-.04.02-.097.02-.156.02h-.136l-.02-.02h-.097c-.02-.021-.02-.021-.039-.021-.04 0-.058-.019-.097-.019 0 0-.02-.02-.04-.02-.018 0-.038-.02-.057-.04-.02 0-.04 0-.059-.02-.02 0-.038-.02-.058-.04-.02 0-.039 0-.039-.019-.04-.02-.058-.02-.078-.04 0-.02-.019-.02-.039-.04s-.059-.04-.077-.079c-.02 0-.02-.02-.02-.02-.039-.02-.059-.06-.077-.08v-.02l-7.433-9.857v9.121c0 .677-.545 1.214-1.187 1.214a1.194 1.194 0 0 1-1.188-1.214V19.204c.02 0 .02-.02.02-.04v-.06c0-.018 0-.039.02-.06v-.058c.019-.02.019-.04.019-.06 0-.02.02-.04.02-.04 0-.02.018-.04.018-.059l.04-.06c0-.02 0-.04.019-.06 0-.02.02-.039.04-.06 0 0 0-.018.019-.039l.038-.04c0-.02.02-.04.02-.04l.059-.059.038-.04.039-.04s.02-.019.039-.04h.02c0-.02.02-.02.02-.02.018-.019.038-.04.057-.04.02-.018.04-.018.04-.039.019 0 .038-.02.059-.02.018-.02.038-.02.057-.02l.058-.039c.02 0 .02 0 .039-.02.02 0 .04 0 .059-.02h.058c.02-.02.039-.02.059-.02h.058c.019-.02.04-.02.059-.02h.234c.018.02.038.02.058.02h.058a.059.059 0 0 0 .039.02l.077.02s.02.02.039.02c.02 0 .04.02.058.02.02 0 .039.02.059.02l.038.04c.02 0 .04.02.06.02.02.019.038.019.038.04.02 0 .04.018.058.039.02 0 .02.02.039.02l.04.04.038.039.04.04c.02.02.038.039.038.06.02 0 .02 0 .02.02l7.433 9.857v-9.123c0-.674.524-1.212 1.186-1.212.642 0 1.187.538 1.187 1.212v12.66zm18.611-2.821c-.136 2.325-2.199 3.677-4.047 3.955a7.74 7.74 0 0 1-.954.06c-1.906 0-3.793-.816-4.96-2.226a1.21 1.21 0 0 1 .135-1.67 1.127 1.127 0 0 1 1.616.14c.856 1.013 2.393 1.57 3.833 1.35.953-.139 2.004-.734 2.061-1.748.059-.895-.622-1.729-1.575-1.948-.39-.1-.837-.12-1.284-.139-1.012-.06-2.14-.12-3.191-.855-1.421-.994-2.12-2.801-1.693-4.392.467-1.729 2.023-3.06 3.872-3.34 1.79-.258 3.697.259 5.078 1.353a1.23 1.23 0 0 1 .194 1.669 1.17 1.17 0 0 1-1.634.198c-.875-.715-2.14-1.053-3.326-.874-.916.14-1.732.796-1.946 1.63-.195.696.232 1.43.777 1.809.506.358 1.188.397 1.986.437.545.039 1.09.06 1.673.198 2.043.457 3.502 2.366 3.385 4.393m17.638-2.048l-2.373-4.85-2.199 4.85h4.572zm4.242 6.003c-.563.297-1.264.06-1.556-.517l-1.518-3.1h-6.673c-.06 0-.098 0-.136-.02l-1.401 3.08a1.163 1.163 0 0 1-1.051.695c-.176 0-.33-.039-.487-.118a1.187 1.187 0 0 1-.564-1.57l5.682-12.541a1.18 1.18 0 0 1 1.03-.696h.02c.448 0 .837.259 1.051.656l6.129 12.54c.292.597.059 1.313-.526 1.59z" fill="#FFF"/></g></svg>